<svg width="18.000000" height="18.000000" viewBox="0 0 18 18" fill="none" xmlns="http://www.w3.org/2000/svg" xmlns:xlink="http://www.w3.org/1999/xlink">
	<desc>
			Created with Pixso.
	</desc>
	<defs/>
	<path id="filter-icon" d="M9 3L9 1M3 15C1.89 15 1 14.1 1 13C1 11.89 1.89 11 3 11C4.1 11 5 11.89 5 13C5 14.1 4.1 15 3 15ZM9 7C7.89 7 7 6.1 7 5C7 3.89 7.89 3 9 3C10.1 3 11 3.89 11 5C11 6.1 10.1 7 9 7ZM15 15C13.89 15 13 14.1 13 13C13 11.89 13.89 11 15 11C16.1 11 17 11.89 17 13C17 14.1 16.1 15 15 15ZM3 11L3 1M9 17L9 7M15 11L15 1M3 17L3 15M15 17L15 15" stroke="#111827" stroke-opacity="1.000000" stroke-width="2.000000" stroke-linejoin="round"/>
</svg>
