<svg width="76.000000" height="24.000000" viewBox="0 0 76 24" fill="none" xmlns="http://www.w3.org/2000/svg" xmlns:xlink="http://www.w3.org/1999/xlink">
	<desc>
			Created with Pixso.
	</desc>
	<defs/>
	<path id="softlog" d="M26.95 19.16L30.53 19.16L30.53 8.65L33.37 8.65L33.37 6.08L30.53 6.08L30.53 4.47C30.53 3.47 31 2.75 32.15 2.75C32.67 2.75 33.12 2.85 33.47 2.97L33.47 0.25C32.9 0.07 32.37 0 31.6 0C28.71 0 26.95 1.52 26.95 4.57L26.95 6.08L25.23 6.08L25.23 8.65L26.95 8.65L26.95 19.16ZM43.55 19.16L47.14 19.16L47.14 0.15L43.55 0.15L43.55 19.16ZM40 19.42C40.97 19.42 41.69 19.24 42.19 19.06L42.19 16.26C41.77 16.44 41.37 16.51 40.82 16.51C39.9 16.51 39.37 16.01 39.37 14.96L39.37 8.65L42.11 8.65L42.11 6.08L39.37 6.08L39.37 3.25L35.79 3.25L35.79 6.08L34.12 6.08L34.12 8.65L35.79 8.65L35.79 15.29C35.79 18.01 37.26 19.42 40 19.42ZM5.67 19.44C9.11 19.44 11.15 17.96 11.15 15.14C11.15 12.33 9.36 11.51 6.1 11.03C4.2 10.76 3.58 10.43 3.58 9.61C3.58 8.8 4.25 8.25 5.42 8.25C6.67 8.25 7.27 8.75 7.47 9.83L10.78 9.83C10.45 6.83 8.29 5.78 5.4 5.78C2.73 5.78 0.24 7.13 0.24 9.86C0.24 12.41 1.59 13.41 5.05 13.93C6.92 14.21 7.69 14.59 7.69 15.49C7.69 16.39 7.04 16.91 5.65 16.91C4.08 16.91 3.51 16.24 3.36 15.06L0 15.06C0.12 17.89 2.16 19.44 5.67 19.44ZM18.62 19.44C22.53 19.44 25.5 16.81 25.5 12.68L25.5 12.48C25.5 8.4 22.56 5.78 18.65 5.78C14.74 5.78 11.77 8.45 11.77 12.56L11.77 12.76C11.77 16.84 14.74 19.44 18.62 19.44ZM54.92 19.44C58.83 19.44 61.79 16.81 61.79 12.68L61.79 12.48C61.79 8.4 58.86 5.78 54.95 5.78C51.04 5.78 48.07 8.45 48.07 12.56L48.07 12.76C48.07 16.84 51.04 19.44 54.92 19.44ZM69.12 24C73.4 24 75.97 22.02 76 18.14L76 6.08L72.41 6.08L72.41 8.03C71.66 6.7 70.39 5.78 68.27 5.78C65.04 5.78 62.55 8.4 62.55 12.16L62.55 12.33C62.55 16.21 65.06 18.59 68.22 18.59C70.14 18.59 71.69 17.44 72.41 16.16L72.41 18.14C72.41 20.19 71.31 21.34 69.12 21.34C67.28 21.34 66.46 20.59 66.23 19.44L62.65 19.44C62.99 22.14 64.91 24 69.12 24ZM18.65 16.69C16.61 16.69 15.46 15.19 15.46 12.68L15.46 12.48C15.46 9.98 16.65 8.53 18.65 8.53C20.66 8.53 21.84 10.03 21.84 12.53L21.84 12.71C21.84 15.19 20.66 16.69 18.65 16.69ZM54.95 16.69C52.9 16.69 51.76 15.19 51.76 12.68L51.76 12.48C51.76 9.98 52.95 8.53 54.95 8.53C56.96 8.53 58.13 10.03 58.13 12.53L58.13 12.71C58.13 15.19 56.96 16.69 54.95 16.69ZM69.3 15.86C67.5 15.86 66.23 14.51 66.23 12.33L66.23 12.13C66.23 9.98 67.35 8.53 69.37 8.53C71.34 8.53 72.51 9.88 72.51 12.11L72.51 12.28C72.51 14.51 71.19 15.86 69.3 15.86Z" fill="#111827" fill-opacity="1.000000" fill-rule="evenodd"/>
</svg>
