<svg width="14.652344" height="14.032471" viewBox="0 0 14.6523 14.0325" fill="none" xmlns="http://www.w3.org/2000/svg" xmlns:xlink="http://www.w3.org/1999/xlink">
	<desc>
			Created with Pixso.
	</desc>
	<defs/>
	<path id="Vector" d="M6.38 0.68C6.68 -0.23 7.96 -0.23 8.26 0.68L9.31 3.92C9.44 4.33 9.82 4.6 10.25 4.6L13.66 4.6C14.61 4.6 15.01 5.82 14.24 6.38L11.48 8.39C11.13 8.64 10.99 9.08 11.12 9.49L12.18 12.73C12.47 13.64 11.43 14.4 10.66 13.83L7.9 11.83C7.55 11.58 7.09 11.58 6.74 11.83L3.98 13.83C3.21 14.4 2.17 13.64 2.47 12.73L3.52 9.49C3.65 9.08 3.51 8.64 3.16 8.39L0.4 6.38C-0.37 5.82 0.03 4.6 0.98 4.6L4.39 4.6C4.82 4.6 5.2 4.33 5.33 3.92L6.38 0.68Z" fill="#F59E0B" fill-opacity="1.000000" fill-rule="nonzero"/>
</svg>
